<svg width="32" height="28" viewBox="0 0 32 28" fill="none" xmlns="http://www.w3.org/2000/svg">
<g filter="url(#filter0_d_0_986)">
<path d="M28 2.55699C27.117 2.94899 26.168 3.21299 25.172 3.33199C26.189 2.72299 26.97 1.75799 27.337 0.607986C26.386 1.17199 25.332 1.58199 24.21 1.80299C23.313 0.845986 22.032 0.247986 20.616 0.247986C17.437 0.247986 15.101 3.21399 15.819 6.29299C11.728 6.08799 8.1 4.12799 5.671 1.14899C4.381 3.36199 5.002 6.25699 7.194 7.72299C6.388 7.69699 5.628 7.47599 4.965 7.10699C4.911 9.38799 6.546 11.522 8.914 11.997C8.221 12.185 7.462 12.229 6.69 12.081C7.316 14.037 9.134 15.46 11.29 15.5C9.22 17.123 6.612 17.848 4 17.54C6.179 18.937 8.768 19.752 11.548 19.752C20.69 19.752 25.855 12.031 25.543 5.10599C26.505 4.41099 27.34 3.54399 28 2.55699Z" fill="white"/>
</g>
<defs>
<filter id="filter0_d_0_986" x="0" y="0.247986" width="32" height="27.504" filterUnits="userSpaceOnUse" color-interpolation-filters="sRGB">
<feFlood flood-opacity="0" result="BackgroundImageFix"/>
<feColorMatrix in="SourceAlpha" type="matrix" values="0 0 0 0 0 0 0 0 0 0 0 0 0 0 0 0 0 0 127 0" result="hardAlpha"/>
<feOffset dy="4"/>
<feGaussianBlur stdDeviation="2"/>
<feComposite in2="hardAlpha" operator="out"/>
<feColorMatrix type="matrix" values="0 0 0 0 0 0 0 0 0 0 0 0 0 0 0 0 0 0 0.25 0"/>
<feBlend mode="normal" in2="BackgroundImageFix" result="effect1_dropShadow_0_986"/>
<feBlend mode="normal" in="SourceGraphic" in2="effect1_dropShadow_0_986" result="shape"/>
</filter>
</defs>
</svg>
